<?xml version="1.0" encoding="UTF-8" standalone="no"?>
<svg
   viewBox="0 0 32 32"
   version="1.1"
   id="svg6"
   sodipodi:docname="email.svg"
   inkscape:version="1.1.1 (3bf5ae0d25, 2021-09-20)"
   xmlns:inkscape="http://www.inkscape.org/namespaces/inkscape"
   xmlns:sodipodi="http://sodipodi.sourceforge.net/DTD/sodipodi-0.dtd"
   xmlns="http://www.w3.org/2000/svg"
   xmlns:svg="http://www.w3.org/2000/svg">
  <defs
     id="defs10" />
  <ellipse
     style="fill:#007fff;fill-rule:evenodd;stroke:#007fff;stroke-width:0;stroke-linecap:round;stroke-miterlimit:2.8;stroke-dasharray:none;paint-order:fill markers stroke;stroke-opacity:1;opacity:1;fill-opacity:1"
     id="path849"
     ry="16"
     rx="15.999999"
     cy="15.999999"
     cx="15.999997" />
  <sodipodi:namedview
     id="namedview8"
     pagecolor="#ffffff"
     bordercolor="#111111"
     borderopacity="1"
     inkscape:pageshadow="0"
     inkscape:pageopacity="0"
     inkscape:pagecheckerboard="1"
     showgrid="false"
     inkscape:zoom="15.5625"
     inkscape:cx="16"
     inkscape:cy="16"
     inkscape:window-width="1452"
     inkscape:window-height="706"
     inkscape:window-x="335"
     inkscape:window-y="102"
     inkscape:window-maximized="0"
     inkscape:current-layer="svg6" />
  <path
     fill="#2979ff"
     d="M 15.981261,17.769083 A 4.1451448,4.749046 0 0 1 13.252812,16.601145 L 5.8844975,9.2843512 a 0.74957417,0.85877862 0 1 1 0.981942,-1.2967559 l 7.3907995,7.3167937 a 2.6609882,3.0486643 0 0 0 3.470529,0 l 7.450767,-7.2480912 a 0.74957417,0.85877862 0 1 1 0.966951,1.3053433 l -7.443272,7.2480919 a 4.1676321,4.7748094 0 0 1 -2.720953,1.15935 z"
     id="path2"
     style="stroke-width:0.802316;fill:#ffffff" />
  <path
     fill="#03a9f4"
     d="M 23.964225,25 H 7.9982964 A 3.0357752,3.4780536 0 0 1 5,21.521948 V 10.478053 A 3.0357752,3.4780536 0 0 1 7.9982964,7 H 23.964225 A 3.0357752,3.4780536 0 0 1 27,10.478053 V 21.521948 A 3.0357752,3.4780536 0 0 1 23.964225,25 Z M 7.9982964,8.6832057 A 1.5366269,1.7604963 0 0 0 6.4991483,10.443702 v 11.078246 a 1.5366269,1.7604963 0 0 0 1.5366269,1.760494 H 24.001704 a 1.5366269,1.7604963 0 0 0 1.536627,-1.760494 V 10.478053 A 1.5366269,1.7604963 0 0 0 24.001704,8.717557 Z"
     id="path4"
     style="stroke-width:0.802316;fill:#ffffff" />
</svg>
