<?xml version="1.0" encoding="UTF-8" standalone="no"?>
<svg
   enable-background="new 0 0 24 24"
   viewBox="0 0 24 24"
   version="1.1"
   id="svg6"
   sodipodi:docname="github.svg"
   inkscape:version="1.1.1 (3bf5ae0d25, 2021-09-20)"
   xmlns:inkscape="http://www.inkscape.org/namespaces/inkscape"
   xmlns:sodipodi="http://sodipodi.sourceforge.net/DTD/sodipodi-0.dtd"
   xmlns="http://www.w3.org/2000/svg"
   xmlns:svg="http://www.w3.org/2000/svg">
  <defs
     id="defs10" />
  <sodipodi:namedview
     id="namedview8"
     pagecolor="#ffffff"
     bordercolor="#111111"
     borderopacity="1"
     inkscape:pageshadow="0"
     inkscape:pageopacity="0"
     inkscape:pagecheckerboard="1"
     showgrid="false"
     inkscape:zoom="20.75"
     inkscape:cx="12"
     inkscape:cy="11.975904"
     inkscape:window-width="1920"
     inkscape:window-height="991"
     inkscape:window-x="-9"
     inkscape:window-y="-9"
     inkscape:window-maximized="1"
     inkscape:current-layer="svg6" />
  <path
     fill="#d85b53"
     d="M 8.2247998,23.384627 A 11.891999,11.892117 0 0 0 15.7728,23.385879 0.59159997,0.59160579 0 0 1 15,22.815874 c 0,-0.405604 0.01559,-1.695616 0.01559,-3.300033 A 2.8415999,2.8416277 0 0 0 14.205591,17.29582 C 16.87559,16.995818 19.67999,15.975808 19.67999,11.370162 A 4.6439998,4.6440454 0 0 0 18.45,8.1456796 4.3127999,4.3128423 0 0 0 18.33,4.9656486 c 0,0 -1.005601,-0.3300032 -3.3,1.230012 a 11.312399,11.31251 0 0 0 -6.0000004,0 C 6.7343997,4.6500455 5.7299998,4.9644485 5.7299998,4.9644485 A 4.3115999,4.3116421 0 0 0 5.6099999,8.1444796 4.6703998,4.6704457 0 0 0 4.3799998,11.36891 c 0,4.590045 2.79,5.625656 5.4599999,5.925659 -0.4416001,0.424804 -0.7128001,0.99481 -0.7656001,1.604416 a 2.5643999,2.5644251 0 0 1 -3.4919997,-0.98401 l -0.0024,-0.0059 a 2.4012,2.4012234 0 0 0 -1.8456,-1.230064 c -1.0044001,0.01559 -0.4044001,0.570005 0.015599,0.795608 0.5412,0.456004 0.9636,1.03801 1.23,1.694415 0.24,0.675608 1.02,1.96562 4.0343999,1.410015 0,1.005609 0.015599,1.950018 0.015599,2.235621 0,0.310803 -0.2219999,0.661207 -0.804,0.570005 z"
     class="colorb2b1ff svgShape"
     id="path2"
     style="fill:#ffffff;stroke-width:1.20001" />
  <path
     fill="#26d7fe"
     d="M 12,0 C 5.3723998,0 0,5.3724526 0,12.000117 c 0,5.307653 3.4499998,9.802897 8.2259996,11.38571 0.5820001,0.09 0.804,-0.259202 0.804,-0.570003 0,-0.285603 -0.014401,-1.230012 -0.014401,-2.235623 -3.0155989,0.555605 -3.7955989,-0.734408 -4.0355989,-1.410014 a 4.3643999,4.3644426 0 0 0 -1.23,-1.694417 c -0.42,-0.225601 -1.02,-0.780008 -0.0156,-0.795607 0.78,0.084 1.4675999,0.543605 1.8455999,1.230012 l 0.00361,0.0072 a 2.5643999,2.5644251 0 0 0 3.4919998,0.984009 C 9.1272001,18.289379 9.3995996,17.720573 9.8399997,17.295768 7.1699998,16.995766 4.3799998,15.960155 4.3799998,11.370111 A 4.6703998,4.6704457 0 0 1 5.6099999,8.1456796 4.3127999,4.3128423 0 0 1 5.7299998,4.9656486 c 0,0 1.0043999,-0.3156031 3.2999998,1.230012 a 11.312399,11.31251 0 0 1 6.0000004,0 c 2.294399,-1.5600152 3.3,-1.230012 3.3,-1.230012 0.444,1.0056098 0.4872,2.1432209 0.12,3.180031 a 4.6439998,4.6440454 0 0 1 1.229999,3.2244314 c 0,4.605645 -2.805599,5.625655 -5.474399,5.925657 0.5784,0.588007 0.874799,1.396813 0.809999,2.220021 0,1.604417 -0.01559,2.89443 -0.01559,3.300035 a 0.59159997,0.59160579 0 0 0 0.771599,0.571205 C 20.5488,21.804213 24,17.308969 24,12.000117 24,5.3724526 18.6276,0 12,0 Z"
     class="color6563ff svgShape"
     id="path4"
     style="fill:#3e4044;fill-opacity:1;stroke-width:1.20001" />
</svg>
