<?xml version="1.0" encoding="UTF-8" standalone="no"?>
<svg
   width="2500"
   height="2500"
   viewBox="7.025 7.025 497.951 497.95"
   version="1.1"
   id="svg9"
   sodipodi:docname="linkedin.svg"
   inkscape:version="1.1.1 (3bf5ae0d25, 2021-09-20)"
   xmlns:inkscape="http://www.inkscape.org/namespaces/inkscape"
   xmlns:sodipodi="http://sodipodi.sourceforge.net/DTD/sodipodi-0.dtd"
   xmlns="http://www.w3.org/2000/svg"
   xmlns:svg="http://www.w3.org/2000/svg">
  <defs
     id="defs13" />
  <sodipodi:namedview
     id="namedview11"
     pagecolor="#ffffff"
     bordercolor="#111111"
     borderopacity="1"
     inkscape:pageshadow="0"
     inkscape:pageopacity="0"
     inkscape:pagecheckerboard="1"
     showgrid="false"
     inkscape:zoom="0.1992"
     inkscape:cx="1250"
     inkscape:cy="1224.8996"
     inkscape:window-width="1920"
     inkscape:window-height="991"
     inkscape:window-x="-9"
     inkscape:window-y="-9"
     inkscape:window-maximized="1"
     inkscape:current-layer="svg9" />
  <linearGradient
     id="a"
     x1="-974.482"
     x2="-622.378"
     y1="1306.773"
     y2="1658.877"
     gradientTransform="translate(1054.43 -1226.825)"
     gradientUnits="userSpaceOnUse">
    <stop
       offset="0"
       stop-color="#2489be"
       id="stop2" />
    <stop
       offset="1"
       stop-color="#0575b3"
       id="stop4" />
  </linearGradient>
  <path
     fill="url(#a)"
     d="M256 7.025C118.494 7.025 7.025 118.494 7.025 256S118.494 504.975 256 504.975 504.976 393.506 504.976 256C504.975 118.494 393.504 7.025 256 7.025zm-66.427 369.343h-54.665V199.761h54.665v176.607zM161.98 176.633c-17.853 0-32.326-14.591-32.326-32.587 0-17.998 14.475-32.588 32.326-32.588s32.324 14.59 32.324 32.588c.001 17.997-14.472 32.587-32.324 32.587zm232.45 199.735h-54.4v-92.704c0-25.426-9.658-39.619-29.763-39.619-21.881 0-33.312 14.782-33.312 39.619v92.704h-52.43V199.761h52.43v23.786s15.771-29.173 53.219-29.173c37.449 0 64.257 22.866 64.257 70.169l-.001 111.825z"
     id="path7" />
  <path
     style="fill:#ffffff;fill-rule:evenodd;stroke:#007fff;stroke-width:0;stroke-linecap:round;stroke-miterlimit:2.8;paint-order:fill markers stroke"
     d="m 739.31316,843.41589 c -48.77999,-13.58885 -87.60498,-46.76701 -108.12288,-92.39718 -7.63286,-16.97485 -10.44151,-33.765 -10.58342,-63.26771 -0.16583,-34.47437 1.86497,-44.28618 14.34301,-69.29827 59.55492,-119.37725 225.30668,-120.40782 283.71483,-1.76403 19.9964,40.61846 23.75431,73.4595 12.74085,111.34449 -25.07481,86.25429 -111.12125,137.93917 -192.09239,115.3827 z"
     id="path904"
     transform="matrix(0.1991804,0,0,0.1991804,7.025,7.0245)" />
  <path
     style="fill:#ffffff;fill-rule:evenodd;stroke:#007fff;stroke-width:0;stroke-linecap:round;stroke-miterlimit:2.8;paint-order:fill markers stroke"
     d="M 642.57028,1410.6426 V 971.38554 h 135.54217 135.54217 v 439.25706 439.257 H 778.11245 642.57028 Z"
     id="path943"
     transform="matrix(0.1991804,0,0,0.1991804,7.025,7.0245)" />
  <path
     style="fill:#ffffff;fill-rule:evenodd;stroke:#007fff;stroke-width:0;stroke-linecap:round;stroke-miterlimit:2.8;paint-order:fill markers stroke"
     d="M 1094.3775,1410.6426 V 971.38554 h 128.0121 128.012 v 58.14926 c 0,31.9821 2.013,57.3963 4.4732,56.4759 2.4603,-0.9203 13.7848,-13.504 25.1656,-27.9636 27.604,-35.0716 65.6451,-64.6567 108.4134,-84.3146 49.4383,-22.72366 82.744,-29.60648 140.7571,-29.08825 126.6489,1.13135 224.9272,58.12815 272.5393,158.06015 38.9938,81.8433 37.7664,68.6608 39.7736,427.1651 l 1.7919,320.0301 h -132.847 -132.847 l -2.1665,-259.7892 c -1.8757,-224.9282 -3.3116,-263.831 -10.7008,-289.9096 -12.5718,-44.3694 -36.4864,-77.4979 -68.8747,-95.4107 -24.7357,-13.6804 -31.2727,-14.9924 -74.7954,-15.0108 -42.1382,-0.018 -51.0364,1.6227 -76.4269,14.0909 -53.3733,26.2095 -81.0904,73.8851 -89.5664,154.0615 -2.4811,23.4689 -4.5512,143.7626 -4.6002,267.3193 l -0.089,224.6486 h -128.012 -128.0121 z"
     id="path982"
     transform="matrix(0.1991804,0,0,0.1991804,7.025,7.0245)" />
</svg>
